<svg width="37" height="51" viewBox="0 0 37 51" fill="none" xmlns="http://www.w3.org/2000/svg">
<path d="M16.5987 49.971C2.59867 28.9894 0 26.8361 0 19.125C0 8.56252 8.2827 0 18.5 0C28.7173 0 37 8.56252 37 19.125C37 26.8361 34.4013 28.9894 20.4013 49.971C19.4825 51.343 17.5174 51.3429 16.5987 49.971ZM18.5 27.0937C22.7572 27.0937 26.2083 23.526 26.2083 19.125C26.2083 14.724 22.7572 11.1562 18.5 11.1562C14.2428 11.1562 10.7917 14.724 10.7917 19.125C10.7917 23.526 14.2428 27.0937 18.5 27.0937Z" fill="#212025"/>
</svg>
